<?xml version="1.0" encoding="UTF-8" standalone="no"?>
<svg
   xmlns:dc="http://purl.org/dc/elements/1.1/"
   xmlns:cc="http://creativecommons.org/ns#"
   xmlns:rdf="http://www.w3.org/1999/02/22-rdf-syntax-ns#"
   xmlns:svg="http://www.w3.org/2000/svg"
   xmlns="http://www.w3.org/2000/svg"
   xml:space="preserve"
   width="60.531349"
   height="20"
   version="1.1"
   style="clip-rule:evenodd;fill-rule:evenodd;image-rendering:optimizeQuality;shape-rendering:geometricPrecision;text-rendering:geometricPrecision"
   viewBox="0 0 6053134.9 1992910"
   id="svg2"><metadata
     id="metadata23"><rdf:RDF><cc:Work
         rdf:about=""><dc:format>image/svg+xml</dc:format><dc:type
           rdf:resource="http://purl.org/dc/dcmitype/StillImage" /><dc:title></dc:title></cc:Work></rdf:RDF></metadata><defs
     id="defs4"><style
       type="text/css"
       id="style6"><![CDATA[
    .str0 {stroke:black;stroke-width:7592.99}
    .fil1 {fill:#999999;fill-rule:nonzero}
    .fil0 {fill:white;fill-rule:nonzero}
   ]]></style></defs><g
     id="Слой_x0020_1"
     transform="matrix(1.1236508,0,0,1.1236508,104896.48,100000.74)"><metadata
       id="CorelCorpID_0Corel-Layer" /><g
       id="_790388368"><polygon
         class="fil0 str0"
         points="2252696,1571409 1831863,1571409 2095086,26805 2516089,26805 "
         id="polygon11"
         style="fill:#ffffff;fill-rule:nonzero;stroke:#000000;stroke-width:7592.99023438" /><path
         class="fil0 str0"
         d="M 3779613,64879 C 3696200,33531 3565505,10 3402266,10 c -415970,-40 -709028,209485 -711499,509727 -2352,221930 209186,345739 368878,419627 163887,75650 218971,123979 218193,191588 -1036,103482 -130864,150833 -251883,150833 -168501,-20 -258022,-23406 -396281,-81071 l -54247,-24583 -59079,345770 c 98340,43137 280173,80484 468961,82437 442546,-30 729824,-207093 733102,-527693 1584,-175735 -110577,-309419 -353452,-419657 -147157,-71495 -237296,-119126 -236340,-191479 10,-64221 76279,-132857 241093,-132857 137700,-2192 237395,27871 315099,59160 l 37735,17796 57067,-334729 z"
         id="path13"
         style="fill:#ffffff;fill-rule:nonzero;stroke:#000000;stroke-width:7592.99023438" /><path
         class="fil0 str0"
         d="m 4859192,28279 -325332,0 c -100772,0 -176193,27562 -220466,128144 l -625225,1415455 442067,0 c 0,0 72303,-190293 88645,-232065 48328,0 477770,658 539171,658 12605,54068 51218,231437 51218,231437 l 390680,-30 -340738,-1543599 -20,0 z m -519153,995568 0,0 c 34817,-89003 167724,-431734 167724,-431734 -2452,4086 34567,-89431 55831,-147415 l 28489,133126 c 0,0 80583,368728 97433,446053 l -349477,-30 z"
         id="path15"
         style="fill:#ffffff;fill-rule:nonzero;stroke:#000000;stroke-width:7592.99023438" /><path
         class="fil0 str0"
         d="M 1478769,27941 1066595,1081243 1022682,867215 C 945955,620433 706865,353134 439586,219300 l 376889,1350774 445445,-528 662792,-1541605 -445943,0 0,0 z"
         id="path17"
         style="fill:#ffffff;fill-rule:nonzero;stroke:#000000;stroke-width:7592.99023438" /><path
         class="fil1 str0"
         d="M 684226,27004 5351,27004 -30,59160 C 528121,186985 877598,495985 1022672,867215 L 875047,157420 C 849568,59618 775641,30442 684226,26994 l 0,10 z"
         id="path19"
         style="fill:#999999;fill-rule:nonzero;stroke:#000000;stroke-width:7592.99023438" /></g></g></svg>