<?xml version="1.0" encoding="UTF-8" standalone="no"?>
<svg
   xmlns:dc="http://purl.org/dc/elements/1.1/"
   xmlns:cc="http://creativecommons.org/ns#"
   xmlns:rdf="http://www.w3.org/1999/02/22-rdf-syntax-ns#"
   xmlns:svg="http://www.w3.org/2000/svg"
   xmlns="http://www.w3.org/2000/svg"
   id="svg2"
   viewBox="0 0 5678976.1 3358678.1"
   style="clip-rule:evenodd;fill-rule:evenodd;image-rendering:optimizeQuality;shape-rendering:geometricPrecision;text-rendering:geometricPrecision"
   version="1.1"
   height="34"
   width="56.789761"
   xml:space="preserve"><metadata
     id="metadata69"><rdf:RDF><cc:Work
         rdf:about=""><dc:format>image/svg+xml</dc:format><dc:type
           rdf:resource="http://purl.org/dc/dcmitype/StillImage" /><dc:title></dc:title></cc:Work></rdf:RDF></metadata><defs
     id="defs4"><style
       id="style6"
       type="text/css"><![CDATA[
    .fil2 {fill:#333333;fill-rule:nonzero}
    .fil1 {fill:#999999;fill-rule:nonzero}
    .fil0 {fill:#B3B3B3;fill-rule:nonzero}
    .fil3 {fill:white;fill-rule:nonzero}
   ]]></style></defs><g
     transform="matrix(1.6703169,0,0,1.6703169,83531.158,29305.671)"
     id="Слой_x0020_1"><metadata
       id="CorelCorpID_0Corel-Layer" /><g
       id="_1231623632"><path
         style="fill:#b3b3b3;fill-rule:nonzero"
         id="path11"
         d="m 3299931,987856 c 158,545430 -441894,987679 -987333,987837 -545459,128 -987688,-441903 -987837,-987333 0,-178 0,-336 0,-504 C 1324613,442427 1766665,168 2312074,20 c 545460,-148 987709,441903 987857,987333 0,168 0,326 0,503 z"
         class="fil0" /><path
         style="fill:#999999;fill-rule:nonzero"
         id="path13"
         d="M 981218,277 C 439009,3714 -10,444837 -10,987856 c 0,545143 442447,987570 987590,987570 255862,0 489083,-97500 664564,-257314 -10,0 -30,-20 -79,-39 l 217,0 c 35938,-32748 69446,-68083 100266,-105759 l -202340,0 c -27008,-32639 -51566,-66640 -73634,-101729 l 348966,0 c 21209,-33962 40433,-69228 57493,-105749 l -464071,0 c -15815,-33903 -29536,-68586 -41272,-103763 l 546665,0 c 32934,-98439 50814,-203763 50814,-313227 0,-72586 -7863,-143346 -22760,-211488 l -603702,0 c 7478,-35058 16912,-69702 28173,-103733 l 546852,0 c -12229,-36225 -26435,-71530 -42576,-105749 l -462243,0 c 16675,-35622 35563,-70276 56663,-103734 l 348700,0 c -23205,-36975 -48879,-72291 -76647,-105749 l -194418,0 c 30060,-35385 63153,-68695 99071,-99763 C 1476781,97797 1243501,277 987580,277 c -2124,0 -4238,-20 -6362,0 z"
         class="fil1" /><g
         id="g15"><path
           style="fill:#333333;fill-rule:nonzero"
           id="path17"
           d="m 1315308,1271181 13148,-89381 c -7182,0 -17752,3102 -27097,3102 -36599,0 -41173,-19559 -38289,-33844 l 36067,-179788 55635,0 11479,-101461 -52445,0 10679,-61474 -109701,0 c -2311,2321 -62066,345766 -62066,387601 0,61928 34762,89460 83779,89035 38368,-316 68261,-10945 78811,-13790 z"
           class="fil2" /><path
           style="fill:#333333;fill-rule:nonzero"
           id="path19"
           d="m 1348608,1100787 c 0,148602 98064,183897 181645,183897 77141,0 117584,-17880 117584,-17880 l 18522,-101432 c 0,0 -65178,26504 -118147,26504 -112930,0 -93134,-84184 -93134,-84184 l 216931,652 c 0,0 13810,-68112 13810,-95880 0,-69298 -37745,-154361 -153195,-154361 -105739,29 -184016,113948 -184016,242684 z m 184421,-148513 0,0 c 59340,0 48385,66690 48385,72093 l -116734,0 c 0,-6905 11014,-72093 68349,-72093 z"
           class="fil2" /><path
           style="fill:#333333;fill-rule:nonzero"
           id="path21"
           d="m 2198867,1271151 18819,-114620 c 0,0 -51625,25852 -87010,25852 -74602,0 -104534,-56949 -104534,-118136 0,-124133 64181,-192443 135632,-192443 53580,0 96572,30080 96572,30080 l 17168,-111380 c 0,0 -50765,-36659 -105393,-36866 -164348,-652 -258401,113780 -258401,311587 0,131097 69643,220329 195129,220329 35484,0 92018,-14403 92018,-14403 z"
           class="fil2" /><path
           style="fill:#333333;fill-rule:nonzero"
           id="path23"
           d="m 736953,859743 c -72113,0 -127353,23174 -127353,23174 l -15282,90586 c 0,0 45629,-18542 114590,-18542 39159,0 67796,4406 67796,36224 0,19333 -3487,26465 -3487,26465 0,0 -30900,-2578 -45224,-2578 -102647,0 -186446,38812 -186446,155822 0,92216 62669,113356 101521,113356 74188,0 103566,-46854 105255,-46982 l -859,38881 c 0,0 92581,0 92591,0 l 41312,-289577 c 0,-122878 -107182,-126829 -144414,-126829 z m 16023,235137 0,0 c 2025,17672 -4564,101264 -67895,101264 -32658,0 -41143,-24963 -41143,-39692 0,-28805 15637,-63341 92679,-63341 17950,0 13346,1285 16359,1769 z"
           class="fil2" /><path
           style="fill:#333333;fill-rule:nonzero"
           id="path25"
           d="m 979776,1282116 c 23688,0 159073,6026 159073,-133685 0,-130643 -125328,-104821 -125328,-157315 0,-26109 20428,-34327 57789,-34327 14807,0 71846,4702 71846,4702 l 13257,-92838 c 0,10 -36916,-8258 -97017,-8258 -77783,0 -156741,31048 -156741,137290 0,120399 131650,108308 131650,159014 0,33854 -36778,36639 -65139,36639 -49046,0 -93213,-16842 -93361,-16023 l -14047,91890 c 2558,780 29813,12911 118018,12911 z"
           class="fil2" /><path
           style="fill:#333333;fill-rule:nonzero"
           id="path27"
           d="m 3066206,775519 -19006,141647 c 0,0 -39593,-54667 -101550,-54667 -116576,0 -176667,116170 -176667,249619 0,86160 42843,170620 130406,170620 62985,0 97905,-43929 97905,-43929 l -4623,37499 102292,0 80331,-500019 -109088,-770 z m -45164,275313 0,0 c 0,55536 -27502,129743 -84490,129743 -37855,0 -55606,-31779 -55606,-81635 0,-81547 36619,-135316 82850,-135316 37825,0 57246,25971 57246,87208 z"
           class="fil2" /><polygon
           style="fill:#333333;fill-rule:nonzero"
           id="polygon29"
           points="147071,776023 62985,1276722 167608,1276722 231620,899217 241025,1276722 313463,1276722 448611,899217 388747,1276722 496393,1276722 579283,776023 408277,774728 306558,1081277 303773,776023 "
           class="fil2" /><path
           style="fill:#333333;fill-rule:nonzero"
           id="path31"
           d="m 1787696,1277434 c 30603,-174049 41509,-311488 130771,-283028 12812,-67361 43357,-125941 57315,-154450 0,0 -4406,-6569 -31996,-6569 -47091,0 -109958,95564 -109958,95564 l 9385,-59083 -97925,0 -65583,407566 107991,0 z"
           class="fil2" /><g
           id="g33"><path
             style="fill:#333333;fill-rule:nonzero"
             id="path35"
             d="m 2419108,859743 c -72133,0 -127393,23174 -127393,23174 l -15262,90586 c 0,0 45638,-18542 114570,-18542 39178,0 67806,4406 67806,36224 0,19333 -3487,26465 -3487,26465 0,0 -30890,-2578 -45194,-2578 -102667,0 -186466,38812 -186466,155822 0,92216 62669,113356 101511,113356 74168,0 103566,-46854 105245,-46982 l -869,38881 92620,0 41292,-289577 c 10,-122878 -107171,-126829 -144373,-126829 z m 16003,235137 0,0 c 2015,17672 -4584,101264 -67905,101264 -32668,0 -41144,-24963 -41144,-39692 0,-28805 15618,-63341 92680,-63341 17959,0 13366,1285 16369,1769 z"
             class="fil2" /></g><path
           style="fill:#333333;fill-rule:nonzero"
           id="path37"
           d="m 2670070,1277434 c 16803,-128045 47911,-307803 130751,-283028 12803,-67361 465,-67174 -27116,-67174 -47120,0 -57562,1709 -57562,1709 l 9414,-59083 -97915,0 -65583,407576 108011,0 z"
           class="fil2" /></g><g
         id="g39"><path
           style="fill:#ffffff;fill-rule:nonzero"
           id="path41"
           d="m 1342711,1239293 13168,-89380 c -7182,0 -17772,3082 -27097,3082 -36600,0 -40630,-19461 -38299,-33844 l 29557,-182376 55635,0 13435,-98864 -52455,0 10679,-61483 -105147,0 c -2321,2321 -62076,345785 -62076,387611 0,61908 34762,89479 83779,89034 38388,-326 68280,-10945 78821,-13780 z"
           class="fil3" /><path
           style="fill:#ffffff;fill-rule:nonzero"
           id="path43"
           d="m 1376031,1068880 c 0,148601 98083,183907 181645,183907 77131,0 111063,-17238 111063,-17238 l 18532,-101412 c 0,0 -58668,25852 -111656,25852 -112901,0 -93134,-84185 -93134,-84185 l 213681,0 c 0,0 13800,-68141 13800,-95900 0,-69287 -34476,-153709 -149935,-153709 -105729,30 -183996,113948 -183996,242685 z m 184401,-148513 0,0 c 59350,0 48395,66689 48395,72083 l -116734,0 c 0,-6895 11034,-72083 68339,-72083 z"
           class="fil3" /><path
           style="fill:#ffffff;fill-rule:nonzero"
           id="path45"
           d="m 2226290,1239253 18808,-114639 c 0,0 -51585,25872 -86999,25872 -74592,0 -104504,-56960 -104504,-118147 0,-124133 64180,-192413 135631,-192413 53571,0 96582,30080 96582,30080 l 17159,-111379 c 0,0 -63776,-25813 -118424,-25813 -121396,0 -239493,105314 -239493,303091 0,131137 63765,217761 189262,217761 35463,0 91978,-14413 91978,-14413 z"
           class="fil3" /><path
           style="fill:#ffffff;fill-rule:nonzero"
           id="path47"
           d="m 764386,827835 c -72103,0 -127373,23175 -127373,23175 l -15262,90586 c 0,0 45618,-18542 114570,-18542 39168,0 67806,4405 67806,36224 0,19332 -3507,26464 -3507,26464 0,0 -30890,-2588 -45184,-2588 -90941,0 -186476,38813 -186476,155823 0,92196 62679,113356 101521,113356 74187,0 106164,-48138 107873,-48286 l -3477,40175 92600,0 41302,-289577 c 0,-122849 -107161,-126810 -144393,-126810 z m 22523,235779 0,0 c 2015,17693 -11094,100593 -74395,100593 -32658,0 -41144,-24934 -41144,-39682 0,-28776 15628,-63341 92680,-63341 17929,20 19846,1936 22859,2430 z"
           class="fil3" /><path
           style="fill:#ffffff;fill-rule:nonzero"
           id="path49"
           d="m 1007189,1250209 c 23688,0 159082,6026 159082,-133695 0,-130623 -125338,-104821 -125338,-157285 0,-26129 20429,-34358 57780,-34358 14827,0 71855,4712 71855,4712 l 13267,-92847 c 0,19 -36916,-8249 -97016,-8249 -77783,0 -156742,31048 -156742,137291 0,120389 131651,108307 131651,159014 0,33843 -36778,36609 -65129,36609 -49057,0 -93223,-16823 -93371,-16033 l -14028,91910 c 2539,770 29784,12931 117989,12931 z"
           class="fil3" /><path
           style="fill:#ffffff;fill-rule:nonzero"
           id="path51"
           d="m 3097294,744520 -22681,140739 c 0,0 -39583,-54668 -101541,-54668 -96344,0 -176656,116161 -176656,249629 0,86170 42843,170581 130405,170581 62985,0 97906,-43919 97906,-43919 l -4633,37508 102281,0 80322,-500038 -105403,168 z m -48829,274414 0,0 c 0,55547 -27492,129734 -84511,129734 -37834,0 -55576,-31769 -55576,-81636 0,-81517 36620,-135305 82821,-135305 37845,-10 57266,25990 57266,87207 z"
           class="fil3" /><polygon
           style="fill:#ffffff;fill-rule:nonzero"
           id="polygon53"
           points="177753,744115 93658,1244825 195040,1244825 259053,867319 268447,1244825 340896,1244825 476043,867319 416170,1244825 523825,1244825 606716,744115 440263,744115 336589,1051335 331195,744115 "
           class="fil3" /><path
           style="fill:#ffffff;fill-rule:nonzero"
           id="path55"
           d="m 1815119,1245516 c 30613,-174058 36283,-315389 109334,-289508 12773,-67371 25121,-93430 39070,-121940 0,0 -6540,-1373 -20281,-1373 -47081,0 -81971,64339 -81971,64339 l 9374,-59093 -97905,0 -65593,407575 107972,0 z"
           class="fil3" /><g
           id="g57"><path
             style="fill:#ffffff;fill-rule:nonzero"
             id="path59"
             d="m 2468915,827835 c -72103,0 -127373,23175 -127373,23175 l -15252,90586 c 0,0 45628,-18542 114590,-18542 39148,0 67776,4405 67776,36224 0,19332 -3497,26464 -3497,26464 0,0 -30880,-2588 -45184,-2588 -90941,0 -186466,38813 -186466,155823 0,92196 62669,113356 101501,113356 74197,0 106174,-48138 107863,-48286 l -3438,40175 c 0,0 92552,0 92581,0 l 41292,-289577 c 20,-122849 -107151,-126810 -144393,-126810 z m 22562,235779 0,0 c 2006,17693 -11103,100593 -74424,100593 -32668,0 -41134,-24934 -41134,-39682 0,-28776 15638,-63341 92680,-63341 17919,20 19826,1936 22878,2430 z"
             class="fil3" /></g><g
           id="g61"><path
             style="fill:#ffffff;fill-rule:nonzero"
             id="path63"
             d="m 2697947,1245516 c 30613,-174058 36284,-315389 109295,-289508 12813,-67371 25171,-93430 39119,-121940 0,0 -6559,-1373 -20280,-1373 -47101,0 -81992,64339 -81992,64339 l 9385,-59093 -97906,0 -65593,407575 107972,0 z"
             class="fil3" /></g><path
           style="fill:#ffffff;fill-rule:nonzero"
           id="path65"
           d="m 3200425,1182630 c 5344,0 10610,1373 15677,4159 5117,2697 9098,6658 11953,11795 2865,5117 4268,10431 4268,15993 0,5492 -1403,10807 -4228,15875 -2796,5077 -6737,9048 -11805,11844 -5058,2786 -10363,4188 -15875,4188 -5552,0 -10846,-1402 -15924,-4188 -5058,-2815 -8979,-6767 -11785,-11844 -2865,-5068 -4258,-10383 -4258,-15875 0,-5562 1413,-10876 4288,-15993 2874,-5137 6855,-9079 11953,-11795 5136,-2786 10402,-4159 15736,-4159 z m 0,5265 0,0 c -4455,0 -8831,1156 -13109,3487 -4247,2272 -7557,5572 -9957,9859 -2391,4248 -3586,8693 -3586,13316 0,4614 1146,9019 3477,13237 2381,4209 5690,7508 9938,9879 4218,2321 8614,3497 13237,3497 4594,0 9039,-1176 13247,-3497 4218,-2371 7508,-5670 9849,-9879 2351,-4237 3497,-8623 3497,-13237 0,-4623 -1186,-9068 -3566,-13316 -2381,-4287 -5690,-7587 -9977,-9859 -4228,-2311 -8565,-3487 -13050,-3487 z m -13988,44315 0,0 0,-34367 11835,0 c 4020,0 6964,326 8742,978 1808,612 3220,1719 4337,3309 1076,1591 1620,3250 1620,5028 0,2509 -919,4702 -2727,6560 -1748,1847 -4119,2914 -7092,3121 1185,514 2163,1116 2914,1818 1373,1363 3072,3635 5067,6816 l 4209,6727 -6787,0 -3023,-5403 c -2400,-4268 -4327,-6925 -5798,-8012 -1018,-780 -2510,-1175 -4456,-1175 l -3240,0 0,14610 -5601,-10 z m 5552,-19342 0,0 6737,0 c 3230,0 5394,-484 6559,-1442 1156,-939 1778,-2213 1778,-3803 0,-1018 -276,-1927 -839,-2707 -563,-820 -1354,-1413 -2371,-1828 -1018,-385 -2825,-582 -5542,-582 l -6312,0 0,10362 -10,0 z"
           class="fil3" /></g></g></g></svg>