<?xml version="1.0" encoding="UTF-8"?>
<!DOCTYPE svg PUBLIC "-//W3C//DTD SVG 1.1//EN" "http://www.w3.org/Graphics/SVG/1.1/DTD/svg11.dtd">
<!-- Creator: CorelDRAW X7 -->
<svg xmlns="http://www.w3.org/2000/svg" xml:space="preserve" width="233px" height="27px" version="1.1" style="shape-rendering:geometricPrecision; text-rendering:geometricPrecision; image-rendering:optimizeQuality; fill-rule:evenodd; clip-rule:evenodd"
viewBox="0 0 23300000 2702192"
 xmlns:xlink="http://www.w3.org/1999/xlink">
 <defs>
  <style type="text/css">
   <![CDATA[
    .str0 {stroke:black;stroke-width:7719.39}
    .fil0 {fill:white;fill-rule:nonzero}
   ]]>
  </style>
 </defs>
 <g id="Слой_x0020_1">
  <metadata id="CorelCorpID_0Corel-Layer"/>
  <g id="_1963696032">
   <path class="fil0 str0" d="M7670826 912924l-474712 -693803c0,0 -127806,-182591 -328642,-182591 -273866,0 -419937,146071 -419937,365172 0,146061 146071,328642 146071,328642l693803 985934 0 584263c0,219091 146061,365161 401682,365161 255611,0 401672,-146070 401672,-365161l0 -584263 693813 -985934c0,0 146061,-182581 146061,-328642 0,-219101 -146061,-365172 -419937,-365172 -200836,0 -328642,182591 -328642,182591l-474712 693803 -36520 0zm-4259078 547743l620773 839874c164316,237356 292131,365161 511222,365161 255621,0 401682,-149717 401682,-365161l0 -1898839c0,-219101 -146061,-365172 -401682,-365172 -255611,0 -401672,146071 -401672,365172l0 839874 -36520 0 -620773 -839874c-164325,-237366 -292131,-365172 -511232,-365172 -255601,0 -401672,149718 -401672,365172l0 1898839c0,219091 146071,365161 401672,365161 255621,0 401692,-146070 401692,-365161l0 -839874 36510 0zm-965157 -365162c0,-620783 -474712,-1095485 -1223290,-1095485 -748589,0 -1223291,474702 -1223291,1095485l0 511222c0,620783 474702,1095485 1223291,1095485 748578,0 1223290,-474702 1223290,-1095485l0 -511222zm-821619 511222c0,292142 -182570,474713 -401671,474713 -219091,0 -401682,-182571 -401682,-474713l0 -511222c0,-292121 182591,-474712 401682,-474712 219101,0 401671,182591 401671,474712l0 511222zm4249090 292142l0 -1497167c0,-219101 -146071,-365172 -401682,-365172 -255611,0 -401682,146071 -401682,365172l0 1862318c0,219102 146071,365162 401682,365162l1278066 0c255611,0 401671,-146060 401671,-365162 0,-219101 -146060,-365151 -401671,-365151l-876384 0z"/>
   <path class="fil0 str0" d="M22460116 1825829c0,91285 -91285,182580 -365162,182580 -310386,0 -346906,-255611 -639027,-255611 -273877,0 -401682,127806 -401682,328642 0,255621 365161,620772 1040709,620772 803354,0 1205036,-401671 1205036,-876383 0,-839874 -1351106,-730324 -1351106,-985935 0,-73030 73040,-146071 255621,-146071 273876,0 310386,255622 602518,255622 273866,0 401671,-127816 401671,-328652 0,-255611 -365161,-620773 -1004189,-620773 -730323,0 -1095485,365162 -1095485,839874 0,876384 1351096,766833 1351096,985935zm-12343307 36520c730314,0 1131995,-401682 1131995,-894649 0,-492968 -401681,-894649 -1131995,-894649l-730333 0c-255601,0 -401672,146070 -401672,365161l0 1862329c0,219101 146071,365161 401672,365161 255621,0 401682,-146060 401682,-365161l0 -438192 328651 0zm-328651 -657293l0 -474712 328651 0c182571,0 292122,109550 292122,237356 0,127805 -109551,237356 -292122,237356l-328651 0zm2320102 -803354c0,-219101 -146060,-365172 -401682,-365172 -255611,0 -401671,146071 -401671,365172l0 1898839c0,219101 146060,365161 401671,365161 255622,0 401682,-146060 401682,-365161l0 -584263 730324 0 0 584263c0,219101 146060,365161 401671,365161 255612,0 401682,-146060 401682,-365161l0 -1898839c0,-219101 -146070,-365172 -401682,-365172 -255611,0 -401671,146071 -401671,365172l0 620773 -730324 0 0 -620773zm4105541 693803c0,-620773 -474712,-1095485 -1223290,-1095485 -748589,0 -1223291,474712 -1223291,1095485l0 511222c0,620783 474702,1095485 1223291,1095485 748578,0 1223290,-474702 1223290,-1095485l0 -511222zm-821618 511222c0,292142 -182571,474713 -401672,474713 -219091,0 -401682,-182571 -401682,-474713l0 -511222c0,-292121 182591,-474712 401682,-474712 219101,0 401672,182591 401672,474712l0 511222zm1753618 -146060l620773 839874c164326,237356 292132,365161 511222,365161 255622,0 401682,-149717 401682,-365161l0 -1898839c0,-219101 -146060,-365172 -401682,-365172 -255611,0 -401671,146071 -401671,365172l0 839874 -36521 0 -620772 -839874c-164326,-237356 -292132,-365172 -511223,-365172 -255611,0 -401681,149718 -401681,365172l0 1898839c0,219101 146070,365161 401681,365161 255612,0 401682,-146060 401682,-365161l0 -839874 36510 0zm3448248 -657283c255612,0 401672,-146071 401672,-365172 0,-219091 -146060,-365161 -401672,-365161l-1387616 0c-255611,0 -401672,146070 -401672,365161l0 1825808c0,219102 146061,365162 401672,365162l1424127 0c255611,0 401681,-146060 401681,-365162 0,-219101 -146070,-365151 -401681,-365151l-1022445 0 0 -219101 693803 0c219091,0 365162,-146071 365162,-328642 0,-182590 -146071,-328651 -365162,-328651l-693803 0 0 -219091 985934 0z"/>
  </g>
 </g>
</svg>
